<svg xmlns="http://www.w3.org/2000/svg" viewBox="0 0 512 512">
  <defs>
    <linearGradient id="bg" x1="0" y1="0" x2="1" y2="1">
      <stop offset="0%" stop-color="#0A369D"/>
      <stop offset="100%" stop-color="#1A50C8"/>
    </linearGradient>
    <linearGradient id="gold" x1="0" y1="0" x2="1" y2="1">
      <stop offset="0%" stop-color="#E8A317"/>
      <stop offset="50%" stop-color="#F5C842"/>
      <stop offset="100%" stop-color="#E8A317"/>
    </linearGradient>
  </defs>
  <rect width="512" height="512" rx="96" fill="url(#bg)"/>
  <!-- Book shape -->
  <rect x="120" y="130" width="272" height="280" rx="16" fill="#FDFBF7" opacity="0.95"/>
  <rect x="136" y="130" width="8" height="280" rx="4" fill="url(#gold)"/>
  <!-- Cross on book -->
  <rect x="228" y="170" width="56" height="12" rx="6" fill="url(#gold)"/>
  <rect x="250" y="148" width="12" height="56" rx="6" fill="url(#gold)"/>
  <!-- Text lines -->
  <rect x="168" y="230" width="216" height="8" rx="4" fill="#0A369D" opacity="0.25"/>
  <rect x="168" y="254" width="180" height="8" rx="4" fill="#0A369D" opacity="0.18"/>
  <rect x="168" y="278" width="200" height="8" rx="4" fill="#0A369D" opacity="0.18"/>
  <rect x="168" y="302" width="160" height="8" rx="4" fill="#0A369D" opacity="0.18"/>
  <rect x="168" y="326" width="190" height="8" rx="4" fill="#0A369D" opacity="0.18"/>
  <!-- Seal at bottom -->
  <circle cx="256" cy="376" r="20" fill="url(#gold)"/>
  <text x="256" y="383" text-anchor="middle" font-size="20" font-weight="bold" fill="#0A369D" font-family="serif">B</text>
</svg>
